<svg width="46" height="40" viewBox="0 0 46 40" fill="none" xmlns="http://www.w3.org/2000/svg">
<path id="Vector" d="M41.6355 32.9412C42.5418 32.9416 43.4133 33.2908 44.0693 33.9163C44.7253 34.5417 45.1155 35.3956 45.159 36.301C45.2026 37.2063 44.8962 38.0937 44.3033 38.7793C43.7104 39.4649 42.8764 39.8961 41.9743 39.9835L41.6355 40H3.9884C3.082 39.9996 2.21053 39.6504 1.55455 39.0249C0.898564 38.3994 0.508368 37.5455 0.46481 36.6402C0.421251 35.7349 0.727671 34.8475 1.32057 34.1619C1.91348 33.4763 2.74741 33.0451 3.64957 32.9576L3.9884 32.9412H41.6355ZM41.6355 16.4706C42.5715 16.4706 43.4692 16.8424 44.1311 17.5043C44.793 18.1662 45.1649 19.0639 45.1649 20C45.1649 20.9361 44.793 21.8338 44.1311 22.4957C43.4692 23.1576 42.5715 23.5294 41.6355 23.5294H3.9884C3.05234 23.5294 2.15462 23.1576 1.49273 22.4957C0.830832 21.8338 0.458984 20.9361 0.458984 20C0.458984 19.0639 0.830832 18.1662 1.49273 17.5043C2.15462 16.8424 3.05234 16.4706 3.9884 16.4706H41.6355ZM41.6355 0C42.5715 0 43.4692 0.371848 44.1311 1.03374C44.793 1.69563 45.1649 2.59335 45.1649 3.52941C45.1649 4.46547 44.793 5.36319 44.1311 6.02508C43.4692 6.68698 42.5715 7.05882 41.6355 7.05882H3.9884C3.05234 7.05882 2.15462 6.68698 1.49273 6.02508C0.830832 5.36319 0.458984 4.46547 0.458984 3.52941C0.458984 2.59335 0.830832 1.69563 1.49273 1.03374C2.15462 0.371848 3.05234 0 3.9884 0H41.6355Z" fill="#004F00"/>
</svg>
