<svg width="80" height="80" viewBox="0 0 80 80" fill="none" xmlns="http://www.w3.org/2000/svg">
<path d="M45.7669 11.6999L51.6335 23.4333C52.4335 25.0666 54.5669 26.6333 56.3669 26.9333L67.0002 28.6999C73.8002 29.8333 75.4002 34.7666 70.5002 39.6333L62.2335 47.8999C60.8335 49.2999 60.0668 51.9999 60.5002 53.9333L62.8669 64.1666C64.7335 72.2666 60.4335 75.3999 53.2669 71.1666L43.3002 65.2666C41.5002 64.1999 38.5335 64.1999 36.7002 65.2666L26.7335 71.1666C19.6002 75.3999 15.2669 72.2333 17.1335 64.1666L19.5002 53.9333C19.9335 51.9999 19.1669 49.2999 17.7669 47.8999L9.50018 39.6333C4.63352 34.7666 6.20019 29.8333 13.0002 28.6999L23.6335 26.9333C25.4002 26.6333 27.5335 25.0666 28.3335 23.4333L34.2002 11.6999C37.4002 5.33326 42.6002 5.33326 45.7669 11.6999Z" stroke="black" stroke-width="1.5" stroke-linecap="round" stroke-linejoin="round"/>
</svg>
