<svg width="35" height="35" viewBox="0 0 35 35" fill="none" xmlns="http://www.w3.org/2000/svg">
<g id="material-symbols:share">
<path id="Vector" d="M26.25 32.0834C25.0347 32.0834 24.0017 31.6581 23.151 30.8074C22.3003 29.9567 21.875 28.9237 21.875 27.7084C21.875 27.5383 21.8872 27.3618 21.9115 27.179C21.9358 26.9963 21.9722 26.8324 22.0208 26.6876L11.7396 20.7084C11.3264 21.073 10.8646 21.3588 10.3542 21.5659C9.84375 21.773 9.30903 21.8761 8.75 21.8751C7.53472 21.8751 6.50174 21.4497 5.65104 20.599C4.80035 19.7483 4.375 18.7154 4.375 17.5001C4.375 16.2848 4.80035 15.2518 5.65104 14.4011C6.50174 13.5504 7.53472 13.1251 8.75 13.1251C9.30903 13.1251 9.84375 13.2286 10.3542 13.4357C10.8646 13.6428 11.3264 13.9281 11.7396 14.2917L22.0208 8.31258C21.9722 8.16675 21.9358 8.00293 21.9115 7.82112C21.8872 7.63932 21.875 7.46286 21.875 7.29175C21.875 6.07647 22.3003 5.04348 23.151 4.19279C24.0017 3.3421 25.0347 2.91675 26.25 2.91675C27.4653 2.91675 28.4983 3.3421 29.349 4.19279C30.1997 5.04348 30.625 6.07647 30.625 7.29175C30.625 8.50703 30.1997 9.54001 29.349 10.3907C28.4983 11.2414 27.4653 11.6667 26.25 11.6667C25.691 11.6667 25.1562 11.5637 24.6458 11.3576C24.1354 11.1515 23.6736 10.8656 23.2604 10.5001L12.9792 16.4792C13.0278 16.6251 13.0642 16.7894 13.0885 16.9722C13.1128 17.1549 13.125 17.3309 13.125 17.5001C13.125 17.6702 13.1128 17.8467 13.0885 18.0295C13.0642 18.2122 13.0278 18.3761 12.9792 18.5209L23.2604 24.5001C23.6736 24.1355 24.1354 23.8501 24.6458 23.644C25.1562 23.4379 25.691 23.3344 26.25 23.3334C27.4653 23.3334 28.4983 23.7588 29.349 24.6095C30.1997 25.4601 30.625 26.4931 30.625 27.7084C30.625 28.9237 30.1997 29.9567 29.349 30.8074C28.4983 31.6581 27.4653 32.0834 26.25 32.0834Z" fill="#004F00"/>
</g>
</svg>
