<svg width="65" height="47" viewBox="0 0 65 47" fill="none" xmlns="http://www.w3.org/2000/svg">
<g id="Group">
<path id="Vector" d="M14.459 12.7143H26.459" stroke="#BC0808" stroke-width="4" stroke-linecap="round" stroke-linejoin="round"/>
<path id="Vector_2" d="M58.958 15.3929H51.152C45.797 15.3929 41.459 18.9902 41.459 23.4286C41.459 27.867 45.8 31.4643 51.149 31.4643H58.958C59.21 31.4643 59.333 31.4643 59.438 31.459C61.058 31.3706 62.348 30.3018 62.453 28.9598C62.459 28.8741 62.459 28.7697 62.459 28.5634V18.2938C62.459 18.0875 62.459 17.9831 62.453 17.8973C62.345 16.5554 61.058 15.4866 59.438 15.3982C59.336 15.3929 59.21 15.3929 58.958 15.3929Z" stroke="#004F00" stroke-width="4"/>
<path id="Vector_3" d="M59.354 15.3929C59.12 10.3786 58.37 7.30357 55.943 5.13929C52.43 2 46.772 2 35.459 2H26.459C15.146 2 9.48798 2 5.97498 5.13929C2.45898 8.27589 2.45898 13.3277 2.45898 23.4286C2.45898 33.5295 2.45898 38.5812 5.97498 41.7179C9.48798 44.8571 15.146 44.8571 26.459 44.8571H35.459C46.772 44.8571 52.43 44.8571 55.943 41.7179C58.37 39.5536 59.123 36.4786 59.354 31.4643" stroke="#004F00" stroke-width="4"/>
<path id="Vector_4" d="M50.433 23.4286H50.463" stroke="#CA2424" stroke-width="4" stroke-linecap="round" stroke-linejoin="round"/>
</g>
</svg>
